<svg xmlns="http://www.w3.org/2000/svg" width="96" height="96" viewBox="0 0 96 96">
  <circle cx="48" cy="48" r="48" fill="#FFFFFF"/>
  <g transform="translate(46,48) scale(3) translate(-10.75, 10.345)">
    <path d="M9.84 0.53L9.84 0.53Q6.19 0.53 4.03-1.87 1.87-4.27 1.87-8.06L1.87-8.06Q1.87-9.89 2.26-11.66L2.26-11.66Q3.26-15.41 6.41-18.05 9.55-20.69 13.97-21.17L13.97-21.17Q14.02-21.22 14.74-21.22L14.74-21.22 14.88-21.22Q16.9-21.22 18.31-20.33 19.73-19.44 20.16-17.9L20.16-17.9Q20.21-17.71 20.21-17.04L20.21-17.04Q20.21-16.18 20.11-15.84L20.11-15.84Q19.1-12.43 14.88-11.38L14.88-11.38Q12.53-10.75 8.45-10.7L8.45-10.7Q6.67-10.7 6.62-10.61L6.62-10.61Q6.62-10.56 6.53-9.98L6.53-9.98Q6-7.63 6-6.14L6-6.14Q6-3.89 7.01-2.57 8.02-1.25 10.03-1.25L10.03-1.25Q15.41-1.25 18.91-5.33L18.91-5.33Q19.34-5.81 19.49-5.81L19.49-5.81Q19.68-5.81 20.11-5.38L20.11-5.38Q20.69-4.8 20.54-4.56L20.54-4.56Q20.35-4.03 19.1-2.93L19.1-2.93Q15.17 0.53 9.84 0.53ZM17.9-16.94L17.9-16.94Q17.62-19.44 14.64-19.44L14.64-19.44Q12.96-19.44 11.18-18.48L11.18-18.48Q8.83-17.09 7.68-14.11L7.68-14.11Q7.15-12.67 7.15-12.53L7.15-12.53Q7.15-12.48 8.11-12.48L8.11-12.48Q9.7-12.48 11.04-12.58L11.04-12.58Q13.87-12.82 15.26-13.39 16.66-13.97 17.57-15.31L17.57-15.31Q17.9-16.03 17.9-16.94Z" fill="#404040"/>
  </g>
</svg>
